<svg width="32" height="32" viewBox="0 0 32 32" fill="none" xmlns="http://www.w3.org/2000/svg">
<path d="M26.6667 0H5.33341V2.66667H26.6667V0ZM5.33341 32H26.6667V29.3333H5.33341V32ZM29.3334 5.33333H2.66675V26.6667H29.3334V5.33333ZM16.0001 9C17.6534 9 19.0001 10.3467 19.0001 12C19.0001 13.6533 17.6534 15 16.0001 15C14.3467 15 13.0001 13.6533 13.0001 12C13.0001 10.3467 14.3467 9 16.0001 9ZM22.6667 22.6667H9.33342V20.6667C9.33342 18.44 13.7734 17.3333 16.0001 17.3333C18.2267 17.3333 22.6667 18.44 22.6667 20.6667V22.6667Z" fill="#434244" fill-opacity="0.5"/>
</svg>
